<?xml version="1.0" encoding="UTF-8"?>
<svg version="1.1" xmlns="http://www.w3.org/2000/svg" width="1024" height="1024">
<path d="M0 0 C337.92 0 675.84 0 1024 0 C1024 337.92 1024 675.84 1024 1024 C686.08 1024 348.16 1024 0 1024 C0 686.08 0 348.16 0 0 Z " fill="#FDFDFD" transform="translate(0,0)"/>
<path d="M0 0 C0.76183594 -0.00515625 1.52367187 -0.0103125 2.30859375 -0.015625 C4.77693018 0.2752708 6.420186 1.02024344 8.5625 2.25 C7.10078736 6.6189864 4.72438903 9.88755447 1.875 13.4375 C0.96195294 14.60031678 0.05050239 15.76438885 -0.859375 16.9296875 C-1.30345703 17.4978418 -1.74753906 18.06599609 -2.20507812 18.65136719 C-5.10240684 22.40962956 -7.75604062 26.33681334 -10.4375 30.25 C-11.34836556 31.5603081 -12.25987676 32.87016751 -13.171875 34.1796875 C-14.1564719 35.5988044 -15.14084631 37.0180757 -16.125 38.4375 C-16.58898193 39.10305908 -17.05296387 39.76861816 -17.53100586 40.4543457 C-19.98025782 44.00185759 -22.2599374 47.57569064 -24.36254883 51.34448242 C-25.62178538 53.57667441 -26.93320152 55.77393128 -28.25 57.97265625 C-35.97097339 70.89634054 -43.32616905 83.98146269 -50.4375 97.25 C-47.85008939 94.70120746 -45.40356327 92.20780839 -43.125 89.375 C-39.96202555 85.53076952 -36.22878054 82.45613113 -32.4375 79.25 C-31.41826648 78.35791704 -30.40010856 77.46460423 -29.3828125 76.5703125 C-12.75711749 62.05593472 -12.75711749 62.05593472 -5.0625 61.6875 C-1.51376877 62.23816519 0.05676761 62.74426761 2.5625 65.25 C1.6434168 69.47974682 -0.35459207 72.90735765 -2.5 76.625 C-2.9012207 77.33108398 -3.30244141 78.03716797 -3.71582031 78.76464844 C-5.66469411 82.18859431 -7.63725417 85.59755715 -9.63671875 88.9921875 C-15.98524823 99.80792483 -21.16137905 109.4982327 -21.4375 122.25 C-16.08393421 122.36638187 -13.56256074 120.86255391 -9.5625 117.3125 C-7.83224304 115.64748652 -6.12371657 113.95960016 -4.4375 112.25 C-3.32181641 111.13238281 -3.32181641 111.13238281 -2.18359375 109.9921875 C4.66910541 102.75946388 10.0694036 94.52558074 15.5625 86.25 C16.5525 86.58 17.5425 86.91 18.5625 87.25 C16.56436459 98.50976306 6.01717557 109.05473984 -1.4375 117.25 C-2.23671875 118.13300781 -3.0359375 119.01601563 -3.859375 119.92578125 C-9.75738836 126.13903326 -14.83618627 130.3494687 -23.625 130.6875 C-27.63593604 130.51498662 -30.29122438 129.90467006 -33.4375 127.25 C-36.95879609 121.96805587 -36.09012197 114.45868476 -35.4375 108.25 C-34.53916974 104.9334618 -33.11624028 102.23084011 -31.4375 99.25 C-30.5277803 97.27717763 -29.6323229 95.29772653 -28.75 93.3125 C-26.57596154 88.52692308 -26.57596154 88.52692308 -25.4375 86.25 C-24.7775 86.25 -24.1175 86.25 -23.4375 86.25 C-23.004375 84.8578125 -23.004375 84.8578125 -22.5625 83.4375 C-21.4375 80.25 -21.4375 80.25 -19.4375 77.25 C-32.69690025 83.2478225 -42.09162564 94.71619247 -50.4375 106.25 C-51.58060146 107.80998942 -52.72383699 109.36988061 -53.8671875 110.9296875 C-58.5079287 117.29299695 -63.11399192 123.66576601 -67.4375 130.25 C-71.3975 129.92 -75.3575 129.59 -79.4375 129.25 C-77.97823252 122.11580342 -74.2148022 116.40074075 -70.4375 110.25 C-71.118125 110.930625 -71.79875 111.61125 -72.5 112.3125 C-72.96148438 112.76882813 -73.42296875 113.22515625 -73.8984375 113.6953125 C-74.94551455 114.75301977 -75.97109494 115.83234981 -76.9765625 116.9296875 C-84.31317204 124.7530863 -93.78945378 130.57184812 -104.609375 131.53125 C-111.55583247 131.72331795 -118.62335743 131.83472046 -123.99609375 126.78515625 C-127.70483437 122.48806017 -128.58656445 119.67684881 -129 114.125 C-129.08378906 113.02929688 -129.16757812 111.93359375 -129.25390625 110.8046875 C-129.31449219 109.96164062 -129.37507812 109.11859375 -129.4375 108.25 C-129.83018066 108.67821045 -130.22286133 109.1064209 -130.62744141 109.54760742 C-132.43524359 111.51451532 -134.24881312 113.47601771 -136.0625 115.4375 C-136.98869141 116.44780273 -136.98869141 116.44780273 -137.93359375 117.47851562 C-149.70446153 130.17866244 -149.70446153 130.17866244 -159.4375 130.625 C-163.01732893 130.55574736 -164.28406728 130.34269894 -167.4375 128.4375 C-172.20587191 123.22209323 -171.85163992 118.77376787 -171.671875 112.02734375 C-170.97032508 100.72069757 -164.26020085 91.11818146 -157.203125 82.53125 C-155.0622556 79.76517095 -154.67320981 77.70707722 -154.4375 74.25 C-156.14946674 72.53803326 -158.15280054 72.67964575 -160.5 72.4375 C-164.34600256 72.4821057 -165.85742327 72.66256722 -168.59375 75.43359375 C-170.29573637 78.05981453 -171.87558188 80.72240903 -173.39550781 83.45751953 C-175.19145132 86.54697999 -177.28284983 89.41887141 -179.375 92.3125 C-179.79644287 92.90144043 -180.21788574 93.49038086 -180.65209961 94.09716797 C-184.01839149 98.76493785 -187.58828678 103.2376923 -191.28125 107.65234375 C-193.43462481 110.24653623 -195.49743827 112.89777611 -197.5625 115.5625 C-200.8481591 119.67609304 -204.2694497 123.05149617 -208.4375 126.25 C-209.7678125 127.425625 -209.7678125 127.425625 -211.125 128.625 C-216.02134475 131.02698044 -221.09947808 131.40669116 -226.4375 130.25 C-230.03833452 127.61862093 -231.28524873 126.20077193 -231.99609375 121.76171875 C-231.78137312 114.98070283 -231.55179528 108.72502929 -229.4375 102.25 C-229.83839844 102.78367187 -230.23929688 103.31734375 -230.65234375 103.8671875 C-248.77660307 127.62188565 -248.77660307 127.62188565 -259.453125 129.62890625 C-263.05162573 129.92458725 -265.47956584 129.88507487 -268.546875 127.8515625 C-273.21967192 123.12083835 -274.26019203 118.92385494 -274.46484375 112.375 C-274.45582031 111.67375 -274.44679688 110.9725 -274.4375 110.25 C-274.79199219 110.72308594 -275.14648438 111.19617188 -275.51171875 111.68359375 C-280.85522593 118.32092834 -287.33799639 122.72161988 -294.4375 127.25 C-295.11554687 127.73082031 -295.79359375 128.21164062 -296.4921875 128.70703125 C-302.92986076 132.75561243 -311.15732078 132.11133808 -318.4375 131.25 C-324.34754869 129.21950081 -327.39951597 125.65877753 -330.4375 120.25 C-332.49598598 107.85649478 -328.88134499 96.93038291 -321.9375 86.75 C-313.20064309 75.54260865 -301.23315854 61.83844134 -286.4375 59.25 C-280.73190217 58.7217039 -277.89615784 59.64061032 -273.4375 63.25 C-271.7979368 66.5291264 -271.92974174 69.7075005 -272.4375 73.25 C-276.88894772 86.39633159 -287.58980652 93.53440563 -299.33984375 99.796875 C-304.6013041 102.36625756 -308.57299771 103.90161137 -314.4375 103.25 C-315.3548273 107.16882221 -315.60188768 110.85345677 -315.625 114.875 C-315.64626953 116.56496094 -315.64626953 116.56496094 -315.66796875 118.2890625 C-315.66543393 121.43726298 -315.66543393 121.43726298 -313.4375 124.25 C-305.29297402 125.95896481 -298.65045465 122.86851335 -291.8984375 118.671875 C-279.76289645 110.53262995 -271.69053886 99.29415073 -263.375 87.5 C-254.55228263 75.37315739 -241.18777764 63.46145858 -226.4375 59.25 C-219.75246574 58.45028045 -213.05822031 58.07049002 -207.4375 62.25 C-204.49074619 65.11920766 -203.49960567 66.42709988 -203.1875 70.5625 C-203.27 71.449375 -203.3525 72.33625 -203.4375 73.25 C-204.7575 73.25 -206.0775 73.25 -207.4375 73.25 C-207.911875 72.280625 -208.38625 71.31125 -208.875 70.3125 C-210.13943947 67.44522563 -210.13943947 67.44522563 -211.4375 66.25 C-218.57148006 65.16439434 -223.65118237 68.29094057 -229.4375 72.25 C-233.66804317 75.71135351 -237.57367635 79.38617635 -241.4375 83.25 C-242.1696875 83.9821875 -242.901875 84.714375 -243.65625 85.46875 C-251.8030047 94.13275897 -261.49643197 106.450325 -261.625 118.75 C-261.563125 119.905 -261.50125 121.06 -261.4375 122.25 C-247.42792027 120.07399198 -237.66855571 105.92311462 -229.77832031 95.23413086 C-228.32453187 93.24427566 -226.87886449 91.24886859 -225.4375 89.25 C-223.91673941 87.14578074 -222.39588779 85.04162733 -220.875 82.9375 C-220.27558594 82.09574219 -219.67617188 81.25398437 -219.05859375 80.38671875 C-217.60360983 78.46894476 -216.29594885 76.77848926 -214.4375 75.25 C-209.4215218 74.69266909 -206.51766757 75.2826054 -202.4375 78.25 C-203.85485747 82.10212501 -205.67336656 85.43922283 -207.8125 88.9375 C-213.10396202 97.88888992 -216.61531643 106.06870508 -216.5 116.5625 C-216.49097656 117.63113281 -216.48195313 118.69976563 -216.47265625 119.80078125 C-216.46105469 120.60902344 -216.44945312 121.41726563 -216.4375 122.25 C-207.10221822 120.26549324 -201.93756809 112.4092553 -196.4375 105.25 C-196.03144531 104.72325684 -195.62539063 104.19651367 -195.20703125 103.65380859 C-190.19449442 97.25517204 -190.19449442 97.25517204 -185.8671875 90.3984375 C-185.39539063 89.68945312 -184.92359375 88.98046875 -184.4375 88.25 C-183.4475 88.25 -182.4575 88.25 -181.4375 88.25 C-181.1796875 87.53972656 -180.921875 86.82945312 -180.65625 86.09765625 C-179.35285792 83.05223053 -177.72635464 80.47311051 -175.9375 77.6875 C-173.44252777 73.50370198 -172.02950791 70.27497969 -171.5 65.4375 C-170.85882339 60.09671023 -169.17189486 56.01430483 -166.6875 51.3125 C-166.36402588 50.68561279 -166.04055176 50.05872559 -165.70727539 49.4128418 C-163.26271984 44.99386039 -160.58139668 42.16072635 -156.4375 39.25 C-153.5625 39.4375 -153.5625 39.4375 -151.4375 40.25 C-151.08470859 46.7439752 -151.42314026 51.33292347 -154.4375 57.25 C-155.00931171 58.55847005 -155.57204849 59.87094878 -156.125 61.1875 C-156.558125 62.198125 -156.99125 63.20875 -157.4375 64.25 C-155.9215625 64.0025 -155.9215625 64.0025 -154.375 63.75 C-147.7978063 62.91894664 -141.05343848 62.96634059 -134.4375 63.25 C-133.4375 64.25 -133.4375 64.25 -133.375 67.8125 C-133.395625 68.946875 -133.41625 70.08125 -133.4375 71.25 C-134.0975 71.25 -134.7575 71.25 -135.4375 71.25 C-135.75267578 72.46236328 -135.75267578 72.46236328 -136.07421875 73.69921875 C-137.84446641 78.30997842 -140.44408431 82.02157426 -143.25 86.0625 C-154.4951106 102.24057181 -154.4951106 102.24057181 -157.4375 121.25 C-152.07925632 121.76030892 -149.65407618 120.50027747 -145.4375 117.25 C-144.509375 116.569375 -143.58125 115.88875 -142.625 115.1875 C-134.22522177 108.01910287 -127.46708439 97.94353398 -121.80078125 88.53125 C-114.43423317 76.30518419 -104.50100886 67.18301027 -91.4375 61.25 C-85.25431253 60.01336251 -77.54290105 58.54942323 -71.8125 61.6875 C-69.72260392 65.58230634 -69.73512082 68.92930381 -70.4375 73.25 C-72.16670247 78.51158399 -74.63803816 82.29648502 -79.4375 85.25 C-80.4275 85.25 -81.4175 85.25 -82.4375 85.25 C-81.89981128 81.3786412 -80.860027 79.27815875 -78.4375 76.25 C-77.2797494 72.77674819 -77.36883348 69.88932552 -77.4375 66.25 C-80.57807701 65.93761579 -82.10522974 66.04619312 -84.83203125 67.71875 C-87.39255388 69.86975447 -89.93501937 72.03154324 -92.4375 74.25 C-93.13359375 74.85070312 -93.8296875 75.45140625 -94.546875 76.0703125 C-100.83506839 81.88060319 -105.135908 88.92292679 -109.4375 96.25 C-109.91832031 97.06855469 -110.39914062 97.88710938 -110.89453125 98.73046875 C-114.22107163 105.183722 -114.81345746 112.57960726 -112.75390625 119.5703125 C-111.90129787 121.67424692 -111.90129787 121.67424692 -110.4375 124.25 C-99.59050812 125.28854178 -92.48469118 122.6217789 -83.73046875 116.29296875 C-68.30704086 103.39871205 -58.61388238 84.92153554 -49.21386719 67.52441406 C-46.21124971 61.98962769 -43.13810115 56.49447415 -40.0625 51 C-39.47315674 49.94627197 -38.88381348 48.89254395 -38.27661133 47.80688477 C-34.17445784 40.4985576 -29.94134286 33.31932298 -25.4375 26.25 C-24.71497229 25.07363666 -23.99367683 23.89651581 -23.2734375 22.71875 C-9.19536155 -0.06202605 -9.19536155 -0.06202605 0 0 Z " fill="#287FC9" transform="translate(847.4375,436.75)"/>
<path d="M0 0 C0.76183594 -0.00515625 1.52367187 -0.0103125 2.30859375 -0.015625 C4.77693018 0.2752708 6.420186 1.02024344 8.5625 2.25 C7.10078736 6.6189864 4.72438903 9.88755447 1.875 13.4375 C0.96195294 14.60031678 0.05050239 15.76438885 -0.859375 16.9296875 C-1.30345703 17.4978418 -1.74753906 18.06599609 -2.20507812 18.65136719 C-5.10240684 22.40962956 -7.75604062 26.33681334 -10.4375 30.25 C-11.34836556 31.5603081 -12.25987676 32.87016751 -13.171875 34.1796875 C-14.1564719 35.5988044 -15.14084631 37.0180757 -16.125 38.4375 C-16.58898193 39.10305908 -17.05296387 39.76861816 -17.53100586 40.4543457 C-19.98025782 44.00185759 -22.2599374 47.57569064 -24.36254883 51.34448242 C-25.62178538 53.57667441 -26.93320152 55.77393128 -28.25 57.97265625 C-35.97097339 70.89634054 -43.32616905 83.98146269 -50.4375 97.25 C-47.85008939 94.70120746 -45.40356327 92.20780839 -43.125 89.375 C-39.96202555 85.53076952 -36.22878054 82.45613113 -32.4375 79.25 C-31.41826648 78.35791704 -30.40010856 77.46460423 -29.3828125 76.5703125 C-12.75711749 62.05593472 -12.75711749 62.05593472 -5.0625 61.6875 C-1.51376877 62.23816519 0.05676761 62.74426761 2.5625 65.25 C1.6434168 69.47974682 -0.35459207 72.90735765 -2.5 76.625 C-3.10183105 77.68412598 -3.10183105 77.68412598 -3.71582031 78.76464844 C-5.66469411 82.18859431 -7.63725417 85.59755715 -9.63671875 88.9921875 C-15.98524823 99.80792483 -21.16137905 109.4982327 -21.4375 122.25 C-16.08393421 122.36638187 -13.56256074 120.86255391 -9.5625 117.3125 C-7.83224304 115.64748652 -6.12371657 113.95960016 -4.4375 112.25 C-3.69371094 111.50492188 -2.94992187 110.75984375 -2.18359375 109.9921875 C4.66910541 102.75946388 10.0694036 94.52558074 15.5625 86.25 C16.5525 86.58 17.5425 86.91 18.5625 87.25 C16.56436459 98.50976306 6.01717557 109.05473984 -1.4375 117.25 C-2.23671875 118.13300781 -3.0359375 119.01601563 -3.859375 119.92578125 C-9.75738836 126.13903326 -14.83618627 130.3494687 -23.625 130.6875 C-27.63593604 130.51498662 -30.29122438 129.90467006 -33.4375 127.25 C-36.95879609 121.96805587 -36.09012197 114.45868476 -35.4375 108.25 C-34.53916974 104.9334618 -33.11624028 102.23084011 -31.4375 99.25 C-30.5277803 97.27717763 -29.6323229 95.29772653 -28.75 93.3125 C-26.57596154 88.52692308 -26.57596154 88.52692308 -25.4375 86.25 C-24.7775 86.25 -24.1175 86.25 -23.4375 86.25 C-23.14875 85.321875 -22.86 84.39375 -22.5625 83.4375 C-21.4375 80.25 -21.4375 80.25 -19.4375 77.25 C-32.69690025 83.2478225 -42.09162564 94.71619247 -50.4375 106.25 C-51.58060146 107.80998942 -52.72383699 109.36988061 -53.8671875 110.9296875 C-58.5079287 117.29299695 -63.11399192 123.66576601 -67.4375 130.25 C-71.3975 129.92 -75.3575 129.59 -79.4375 129.25 C-77.97823252 122.11580342 -74.2148022 116.40074075 -70.4375 110.25 C-71.118125 110.930625 -71.79875 111.61125 -72.5 112.3125 C-72.96148438 112.76882813 -73.42296875 113.22515625 -73.8984375 113.6953125 C-74.94551455 114.75301977 -75.97109494 115.83234981 -76.9765625 116.9296875 C-84.31317204 124.7530863 -93.78945378 130.57184812 -104.609375 131.53125 C-111.55583247 131.72331795 -118.62335743 131.83472046 -123.99609375 126.78515625 C-127.70483437 122.48806017 -128.58656445 119.67684881 -129 114.125 C-129.08378906 113.02929688 -129.16757812 111.93359375 -129.25390625 110.8046875 C-129.31449219 109.96164062 -129.37507812 109.11859375 -129.4375 108.25 C-130.7575 108.25 -132.0775 108.25 -133.4375 108.25 C-132.16779331 103.83503005 -130.54662382 100.69426492 -127.75 97.0625 C-124.96111896 93.3673578 -122.43296682 89.66267714 -120.0625 85.6875 C-113.15221517 74.72797587 -103.21487961 66.59889324 -91.4375 61.25 C-85.25431253 60.01336251 -77.54290105 58.54942323 -71.8125 61.6875 C-69.72260392 65.58230634 -69.73512082 68.92930381 -70.4375 73.25 C-72.16670247 78.51158399 -74.63803816 82.29648502 -79.4375 85.25 C-80.4275 85.25 -81.4175 85.25 -82.4375 85.25 C-81.89981128 81.3786412 -80.860027 79.27815875 -78.4375 76.25 C-77.2797494 72.77674819 -77.36883348 69.88932552 -77.4375 66.25 C-80.57807701 65.93761579 -82.10522974 66.04619312 -84.83203125 67.71875 C-87.39255388 69.86975447 -89.93501937 72.03154324 -92.4375 74.25 C-93.13359375 74.85070312 -93.8296875 75.45140625 -94.546875 76.0703125 C-100.83506839 81.88060319 -105.135908 88.92292679 -109.4375 96.25 C-110.15873047 97.47783203 -110.15873047 97.47783203 -110.89453125 98.73046875 C-114.22107163 105.183722 -114.81345746 112.57960726 -112.75390625 119.5703125 C-111.90129787 121.67424692 -111.90129787 121.67424692 -110.4375 124.25 C-99.59050812 125.28854178 -92.48469118 122.6217789 -83.73046875 116.29296875 C-68.30704086 103.39871205 -58.61388238 84.92153554 -49.21386719 67.52441406 C-46.21124971 61.98962769 -43.13810115 56.49447415 -40.0625 51 C-39.17848511 49.41940796 -39.17848511 49.41940796 -38.27661133 47.80688477 C-34.17445784 40.4985576 -29.94134286 33.31932298 -25.4375 26.25 C-24.71497229 25.07363666 -23.99367683 23.89651581 -23.2734375 22.71875 C-9.19536155 -0.06202605 -9.19536155 -0.06202605 0 0 Z " fill="#18D3F4" transform="translate(847.4375,436.75)"/>
<path d="M0 0 C0 0.99 0 1.98 0 3 C-0.66 3.33 -1.32 3.66 -2 4 C-2.33 4.99 -2.66 5.98 -3 7 C-2.15179688 6.95359375 -1.30359375 6.9071875 -0.4296875 6.859375 C12.44059728 6.46336624 24.62719943 8.90144982 35 17 C40.98422251 22.77249025 44.22442962 27.44391053 44.53369141 35.80297852 C44.69553792 50.60370472 40.32310724 59.51997899 29.8984375 70.3203125 C12.75112383 86.17348929 -7.6769753 95.83762656 -30 102 C-31.83304688 102.53947266 -31.83304688 102.53947266 -33.703125 103.08984375 C-39.89837558 104.81339423 -45.57825391 105.38359988 -52 105 C-52 103.35 -52 101.7 -52 100 C-50.79730469 99.88785156 -50.79730469 99.88785156 -49.5703125 99.7734375 C-23.1411019 96.71699818 3.10633805 83.71008045 20.9140625 63.8671875 C24.74071602 59.02009304 27.47174731 53.61528586 30 48 C30.36867188 47.22785156 30.73734375 46.45570313 31.1171875 45.66015625 C33.09466082 39.70148664 33.10287211 31.65438166 31.27734375 25.60546875 C28.63135474 20.68842844 24.18770175 16.98353302 19 15 C13.69359084 14.10997966 8.42625931 13.71786788 3.0625 13.4375 C2.28326172 13.39431641 1.50402344 13.35113281 0.70117188 13.30664062 C-1.19907117 13.20171923 -3.09951669 13.1004755 -5 13 C-5.09796875 13.73992187 -5.1959375 14.47984375 -5.296875 15.2421875 C-6.09594369 18.37631248 -7.12849552 19.70933733 -9.25 22.125 C-27.60408036 44.24822187 -41.69139788 70.16303153 -56 95 C-56.56203125 95.97243652 -57.1240625 96.94487305 -57.703125 97.94677734 C-71.44525465 120.57201346 -71.44525465 120.57201346 -77.25 145.75 C-77.25515625 146.69359375 -77.2603125 147.6371875 -77.265625 148.609375 C-77.23141373 151.18504964 -77.23141373 151.18504964 -75 153 C-72.93125966 153.6425235 -72.93125966 153.6425235 -71 154 C-71.33 154.99 -71.66 155.98 -72 157 C-79.9529703 157.62376238 -79.9529703 157.62376238 -83.9375 155.25 C-87.42671792 151.44358046 -88.49464456 148.76424545 -88.29296875 143.47265625 C-84.14786117 108.48794828 -57.80416139 68.83768685 -40 39 C-39.22027832 37.68926514 -39.22027832 37.68926514 -38.42480469 36.35205078 C-29.63789863 21.63789863 -29.63789863 21.63789863 -27 19 C-45.42609543 21.85375474 -63.25272117 35.07346256 -76 48 C-76.66 48.66128906 -77.32 49.32257813 -78 50.00390625 C-81.51174167 53.77734021 -82.96901127 56.94815524 -84 62 C-85.8125 61.875 -85.8125 61.875 -88 61 C-91.29214976 56.57262619 -91.37331978 52.77398181 -90.6328125 47.51953125 C-88.19608717 37.81775447 -80.07780361 31.14761995 -72 26 C-56.25089719 16.68057678 -38.10048131 8.7554469 -19.625 7.6875 C-15.33258148 6.87342063 -13.51930307 5.34890716 -10.4453125 2.375 C-7.26096254 -0.65443563 -4.2162651 -0.07807898 0 0 Z " fill="#261B8C" transform="translate(266,424)"/>
<path d="M0 0 C3.01437531 2.38608631 4.86255798 4.16785111 5.44921875 8.0078125 C5.84653511 15.00058049 4.49911345 19.02999766 0.16796875 24.53125 C-5.11254377 30.23180329 -11.82686027 35.43434414 -19.83203125 35.9453125 C-20.51265625 35.8834375 -21.19328125 35.8215625 -21.89453125 35.7578125 C-21.89453125 34.7678125 -21.89453125 33.7778125 -21.89453125 32.7578125 C-19.8828125 31.36328125 -19.8828125 31.36328125 -17.20703125 29.9453125 C-11.74415313 26.83472184 -7.94709301 23.91549778 -5.89453125 17.7578125 C-5.50165622 13.71214301 -5.50165622 13.71214301 -5.89453125 9.7578125 C-9.7034874 5.50074386 -14.48106216 4.04087369 -20.05859375 3.38671875 C-31.25852921 3.17182157 -41.20381287 5.6505652 -51.89453125 8.7578125 C-53.00957031 9.06847656 -54.12460937 9.37914062 -55.2734375 9.69921875 C-67.49269391 13.40655777 -83.58575724 19.79465148 -90.89453125 30.7578125 C-91.42464004 32.86333915 -91.42464004 32.86333915 -91.64453125 35.1328125 C-91.79148437 36.25816406 -91.79148437 36.25816406 -91.94140625 37.40625 C-91.86991014 40.99297161 -90.93687117 43.6736675 -88.43359375 46.27734375 C-78.18378087 53.20119694 -65.87889009 57.09588519 -54.23754883 61.04711914 C-47.68810038 63.27101328 -41.41291059 65.75333643 -35.20703125 68.8203125 C-34.55959961 69.13677734 -33.91216797 69.45324219 -33.24511719 69.77929688 C-26.91909125 73.0103138 -21.23180869 76.74598019 -18.89453125 83.7578125 C-17.74050832 91.88726289 -19.31337657 97.99820665 -23.89453125 104.7578125 C-26.69162761 108.31234308 -29.70023255 111.55824268 -32.89453125 114.7578125 C-33.57257813 115.44746094 -34.250625 116.13710938 -34.94921875 116.84765625 C-45.63263885 127.02714144 -59.66395868 133.53069319 -72.89453125 139.7578125 C-73.6019043 140.09506348 -74.30927734 140.43231445 -75.03808594 140.77978516 C-88.05313301 146.80484947 -101.72925376 149.21341336 -116.01953125 149.3203125 C-117.03724609 149.33481445 -118.05496094 149.34931641 -119.10351562 149.36425781 C-126.69847899 149.26242868 -135.01360667 148.19238834 -140.90478516 142.97875977 C-145.90408265 137.43612874 -147.30795807 132.98421371 -147.140625 125.5625 C-146.21003607 114.95674045 -139.21260892 106.21998634 -131.33203125 99.55078125 C-124.49259242 94.51984788 -117.62075817 91.56786881 -109.08203125 91.6953125 C-108.29183594 91.70433594 -107.50164062 91.71335937 -106.6875 91.72265625 C-106.09582031 91.73425781 -105.50414062 91.74585938 -104.89453125 91.7578125 C-104.89453125 92.4178125 -104.89453125 93.0778125 -104.89453125 93.7578125 C-105.51199219 93.96535156 -106.12945312 94.17289063 -106.765625 94.38671875 C-116.62739279 97.9741807 -126.30794307 104.37511037 -131.03125 114.09765625 C-132.98129386 120.10661494 -132.85947918 126.55773121 -130.33203125 132.3203125 C-125.07004927 137.58229448 -119.65369921 138.12963391 -112.50805664 138.17529297 C-111.48059326 138.16127441 -110.45312988 138.14725586 -109.39453125 138.1328125 C-108.32517334 138.12266113 -107.25581543 138.11250977 -106.15405273 138.10205078 C-82.48112811 137.64071574 -55.01992702 128.76260689 -37.89453125 111.7578125 C-32.78563864 106.33521596 -32.31889577 101.21032196 -32.23046875 93.90625 C-33.33146824 88.68621713 -36.33253908 85.81012509 -40.671875 82.88671875 C-49.66999433 78.42658791 -58.87287395 75.38741156 -68.46484375 72.4453125 C-97.97910783 63.37037556 -97.97910783 63.37037556 -103.89453125 53.7578125 C-106.61575131 47.82694827 -107.16649293 41.66409077 -105.125 35.39453125 C-96.21713933 17.67323952 -76.23186846 8.92268222 -58.53662109 2.63037109 C-41.9334209 -2.8528887 -16.04506825 -10.52027155 0 0 Z " fill="#295FB5" transform="translate(529.89453125,433.2421875)"/>
<path d="M0 0 C1.65515625 -0.04253906 1.65515625 -0.04253906 3.34375 -0.0859375 C7.21605406 0.47957225 8.83594841 1.53529666 11.5 4.375 C12.70739947 8.55118169 12.22172924 12.7421905 10.47265625 16.69921875 C8.52426128 19.90311443 6.43506537 23.00520648 3.5 25.375 C2.18 25.375 0.86 25.375 -0.5 25.375 C-0.08203507 21.92678934 0.71705408 20.0198206 2.5625 17 C4.74000054 13.42323918 4.84220374 10.56699581 4.5 6.375 C-5.24613263 7.40462038 -12.07749927 15.35687639 -18.2578125 22.4609375 C-20.8830492 25.87283049 -23.19937144 29.38819739 -25.4375 33.0625 C-25.81527588 33.6800415 -26.19305176 34.29758301 -26.58227539 34.93383789 C-30.17293228 41.06736472 -31.78710597 46.9098486 -31.8125 54.0625 C-31.82925781 55.15949219 -31.84601563 56.25648438 -31.86328125 57.38671875 C-31.45709301 60.72794463 -30.97103177 62.10359306 -28.5 64.375 C-21.3528916 66.26291543 -14.70837844 63.84078728 -8.4765625 60.38671875 C3.15233943 52.52729028 11.37169327 40.41695761 18.4375 28.5 C19.118125 27.46875 19.79875 26.4375 20.5 25.375 C21.49 25.375 22.48 25.375 23.5 25.375 C24.35419715 33.74918281 16.52950805 41.16193677 11.6875 47.4375 C2.25776053 58.92362666 -7.97202038 69.83231239 -23.38671875 71.73046875 C-30.80310904 72.08182143 -36.41489679 70.70013952 -42.5 66.375 C-47.29019858 61.46796731 -47.26706545 55.92046086 -47.5 49.375 C-48.20125 50.17164063 -48.9025 50.96828125 -49.625 51.7890625 C-65.25911392 69.34009803 -65.25911392 69.34009803 -76.01953125 70.69140625 C-80.14332429 70.87857694 -82.63120463 70.9895138 -86.0625 68.5625 C-89.18743859 63.80715866 -89.06308222 58.87287228 -88.5 53.375 C-86.50430977 46.35754575 -82.84916142 39.82625355 -79.5 33.375 C-79.98210937 33.9525 -80.46421875 34.53 -80.9609375 35.125 C-81.90839844 36.23875 -81.90839844 36.23875 -82.875 37.375 C-83.81472656 38.48875 -83.81472656 38.48875 -84.7734375 39.625 C-85.34320313 40.2025 -85.91296875 40.78 -86.5 41.375 C-87.16 41.375 -87.82 41.375 -88.5 41.375 C-87.88361994 38.01993661 -86.67418513 35.95460405 -84.62109375 33.25 C-84.03303955 32.46625 -83.44498535 31.6825 -82.83911133 30.875 C-82.21157959 30.05 -81.58404785 29.225 -80.9375 28.375 C-76.08765781 21.91264838 -71.41034089 15.43016627 -67.05078125 8.625 C-65.64588345 6.58665961 -64.42852144 4.92282629 -62.5 3.375 C-57.94275172 2.95303257 -54.61642574 3.37915722 -50.5 5.375 C-52.02990688 9.65068711 -54.2345745 13.35382731 -56.625 17.1875 C-61.41098409 25.02255641 -65.58182352 33.07614514 -69.5 41.375 C-70.03109375 42.48359375 -70.5621875 43.5921875 -71.109375 44.734375 C-73.91591821 50.9466111 -75.06803397 55.55859233 -74.5 62.375 C-68.29073178 62.24564025 -65.59952156 60.16765661 -61.19921875 55.87109375 C-59.5 54.375 -59.5 54.375 -57.5 54.375 C-57.24347656 53.79492188 -56.98695313 53.21484375 -56.72265625 52.6171875 C-55.38700357 50.16777972 -53.87075692 48.50746274 -51.9375 46.5 C-48.46292193 42.68551756 -45.66198759 38.73161538 -42.9375 34.375 C-33.39653898 19.17654409 -19.76364072 0.23088365 0 0 Z " fill="#2A2997" transform="translate(369.5,496.625)"/>
<path d="M0 0 C3.35291512 2.71426462 3.53912588 3.32350822 4 7.625 C3.8667189 14.98211699 -0.0817403 21.08052414 -5 26.3125 C-12.59363326 33.37899549 -24.75752545 42.39401922 -35.5625 42.4375 C-36.490625 42.334375 -37.41875 42.23125 -38.375 42.125 C-39.2923273 46.04382221 -39.53938768 49.72845677 -39.5625 53.75 C-39.58376953 55.43996094 -39.58376953 55.43996094 -39.60546875 57.1640625 C-39.60293393 60.31226298 -39.60293393 60.31226298 -37.375 63.125 C-29.21822958 64.83653406 -22.5492209 61.74101401 -15.80078125 57.51171875 C-11.8264117 54.83243524 -8.25570585 52.15133127 -5 48.625 C-4.13375 47.8 -3.2675 46.975 -2.375 46.125 C-0.2109375 46.46875 -0.2109375 46.46875 1.625 47.125 C-2.22917942 56.23487864 -10.41685015 60.98536155 -18.375 66.125 C-19.055625 66.60839844 -19.73625 67.09179688 -20.4375 67.58984375 C-26.87638718 71.62852075 -35.09787431 70.9859768 -42.375 70.125 C-48.28504869 68.09450081 -51.33701597 64.53377753 -54.375 59.125 C-56.43348598 46.73149478 -52.81884499 35.80538291 -45.875 25.625 C-36.70479741 13.86172514 -16.85234454 -9.36241363 0 0 Z " fill="#2A6DBF" transform="translate(571.375,497.875)"/>
<path d="M0 0 C0.70125 0.268125 1.4025 0.53625 2.125 0.8125 C2.47779141 7.3064752 2.13935974 11.89542347 -0.875 17.8125 C-1.44681171 19.12097005 -2.00954849 20.43344878 -2.5625 21.75 C-2.995625 22.760625 -3.42875 23.77125 -3.875 24.8125 C-2.864375 24.6475 -1.85375 24.4825 -0.8125 24.3125 C5.7646937 23.48144664 12.50906152 23.52884059 19.125 23.8125 C20.125 24.8125 20.125 24.8125 20.1875 28.375 C20.166875 29.509375 20.14625 30.64375 20.125 31.8125 C19.465 31.8125 18.805 31.8125 18.125 31.8125 C17.91488281 32.62074219 17.70476563 33.42898438 17.48828125 34.26171875 C15.71803359 38.87247842 13.11841569 42.58407426 10.3125 46.625 C-0.9326106 62.80307181 -0.9326106 62.80307181 -3.875 81.8125 C1.48324368 82.32280892 3.90842382 81.06277747 8.125 77.8125 C9.094375 77.07 10.06375 76.3275 11.0625 75.5625 C14.83369878 72.37148565 17.9583263 68.58814942 21.125 64.8125 C21.125 65.8025 21.125 66.7925 21.125 67.8125 C21.455 68.8025 21.785 69.7925 22.125 70.8125 C4.76412329 90.21398609 4.76412329 90.21398609 -3.23046875 91.0625 C-7.54731882 91.26654609 -10.1137891 91.27239825 -13.875 89 C-18.64337191 83.78459323 -18.28913992 79.33626787 -18.109375 72.58984375 C-17.40782508 61.28319757 -10.69770085 51.68068146 -3.640625 43.09375 C-1.4997556 40.32767095 -1.11070981 38.26957722 -0.875 34.8125 C-3.13019751 32.55730249 -6.95292837 32.99995987 -9.94140625 32.9921875 C-15.02791581 34.41451374 -16.73873995 38.49671681 -19.21875 42.89453125 C-21.48409962 46.88560712 -23.61501293 49.08188025 -27.875 50.8125 C-28.865 50.8125 -29.855 50.8125 -30.875 50.8125 C-30.875 50.1525 -30.875 49.4925 -30.875 48.8125 C-29.885 48.8125 -28.895 48.8125 -27.875 48.8125 C-27.6171875 48.10222656 -27.359375 47.39195312 -27.09375 46.66015625 C-25.79035792 43.61473053 -24.16385464 41.03561051 -22.375 38.25 C-19.88002777 34.06620198 -18.46700791 30.83747969 -17.9375 26 C-17.29632339 20.65921023 -15.60939486 16.57680483 -13.125 11.875 C-12.80152588 11.24811279 -12.47805176 10.62122559 -12.14477539 9.9753418 C-9.53411232 5.25609065 -5.90473787 -0.3850916 0 0 Z " fill="#289CDA" transform="translate(693.875,476.1875)"/>
<path d="M0 0 C2.08989608 3.89480634 2.07737918 7.24180381 1.375 11.5625 C-0.35420247 16.82408399 -2.82553816 20.60898502 -7.625 23.5625 C-8.615 23.5625 -9.605 23.5625 -10.625 23.5625 C-10.08731128 19.6911412 -9.047527 17.59065875 -6.625 14.5625 C-5.4672494 11.08924819 -5.55633348 8.20182552 -5.625 4.5625 C-8.76557701 4.25011579 -10.29272974 4.35869312 -13.01953125 6.03125 C-15.58005388 8.18225447 -18.12251937 10.34404324 -20.625 12.5625 C-21.32109375 13.16320312 -22.0171875 13.76390625 -22.734375 14.3828125 C-29.02256839 20.19310319 -33.323408 27.23542679 -37.625 34.5625 C-38.10582031 35.38105469 -38.58664062 36.19960938 -39.08203125 37.04296875 C-42.40857163 43.496222 -43.00095746 50.89210726 -40.94140625 57.8828125 C-40.08879787 59.98674692 -40.08879787 59.98674692 -38.625 62.5625 C-28.5798534 63.52426936 -20.87792813 61.6960768 -12.96386719 55.19873047 C-10.23171332 52.80040129 -7.61223575 50.30913666 -5.0234375 47.7578125 C-2.625 45.5625 -2.625 45.5625 -0.625 45.5625 C0.17578125 47.2265625 0.17578125 47.2265625 0.375 49.5625 C-6.81171858 59.05872295 -17.76420396 67.32461396 -29.625 69.5625 C-37.18377926 70.23273658 -43.86346074 70.18475317 -50.625 66.5625 C-55.23203858 62.23257652 -56.72595132 58.63543943 -57.1875 52.4375 C-57.27128906 51.34179688 -57.35507812 50.24609375 -57.44140625 49.1171875 C-57.50199219 48.27414062 -57.56257812 47.43109375 -57.625 46.5625 C-58.945 46.5625 -60.265 46.5625 -61.625 46.5625 C-60.35529331 42.14753005 -58.73412382 39.00676492 -55.9375 35.375 C-53.14861896 31.6798578 -50.62046682 27.97517714 -48.25 24 C-41.33971517 13.04047587 -31.40237961 4.91139324 -19.625 -0.4375 C-13.44181253 -1.67413749 -5.73040105 -3.13807677 0 0 Z " fill="#1EBEEC" transform="translate(775.625,498.4375)"/>
<path d="M0 0 C1.45823212 -0.0270043 2.91660675 -0.04639787 4.375 -0.0625 C5.18710938 -0.07410156 5.99921875 -0.08570313 6.8359375 -0.09765625 C9 0 9 0 11 1 C11.3630826 5.26727743 10.56846137 7.14693313 7.98046875 10.51171875 C3.66440984 16.37813291 -0.00761702 22.53279773 -3.6875 28.8125 C-4.3891871 30.00504412 -5.0910121 31.19750711 -5.79296875 32.38989258 C-7.86953843 35.92220643 -9.9355849 39.46056867 -12 43 C-12.58604004 44.00256836 -13.17208008 45.00513672 -13.77587891 46.03808594 C-31.85564535 74.28307694 -31.85564535 74.28307694 -40.25 105.75 C-40.25515625 106.69359375 -40.2603125 107.6371875 -40.265625 108.609375 C-40.23141373 111.18504964 -40.23141373 111.18504964 -38 113 C-35.93125966 113.6425235 -35.93125966 113.6425235 -34 114 C-34.33 114.99 -34.66 115.98 -35 117 C-42.9529703 117.62376238 -42.9529703 117.62376238 -46.9375 115.25 C-50.42671792 111.44358046 -51.49464456 108.76424545 -51.29296875 103.47265625 C-48.72591315 81.80670699 -35.47324721 60.68158535 -25.875 41.4375 C-25.45420166 40.59213684 -25.03340332 39.74677368 -24.59985352 38.87579346 C-21.78099684 33.225322 -18.91103777 27.6034908 -16 22 C-15.39315369 20.81969208 -15.39315369 20.81969208 -14.77404785 19.61553955 C-13.60045131 17.34871449 -12.40248607 15.09674373 -11.1953125 12.84765625 C-10.84604706 12.16771103 -10.49678162 11.48776581 -10.13693237 10.78721619 C-9.10986328 8.91430664 -9.10986328 8.91430664 -7 6 C-4.31982422 5.23217773 -4.31982422 5.23217773 -2 5 C-0.62533375 2.52363988 -0.62533375 2.52363988 0 0 Z " fill="#200D84" transform="translate(229,464)"/>
<path d="M0 0 C1.18529297 0.01353516 1.18529297 0.01353516 2.39453125 0.02734375 C3.28205078 0.04474609 3.28205078 0.04474609 4.1875 0.0625 C4.1875 0.7225 4.1875 1.3825 4.1875 2.0625 C3.57003906 2.27003906 2.95257813 2.47757813 2.31640625 2.69140625 C-7.54536154 6.2788682 -17.22591182 12.67979787 -21.94921875 22.40234375 C-23.89926261 28.41130244 -23.77744793 34.86241871 -21.25 40.625 C-15.98801802 45.88698198 -10.57166796 46.43432141 -3.42602539 46.47998047 C-2.39856201 46.46596191 -1.37109863 46.45194336 -0.3125 46.4375 C0.75685791 46.42734863 1.82621582 46.41719727 2.92797852 46.40673828 C20.11163715 46.07186526 37.13277306 41.51106684 52.109375 32.9453125 C54.59099726 31.89108951 56.51799807 31.90382331 59.1875 32.0625 C59.5175 33.0525 59.8475 34.0425 60.1875 35.0625 C48.68553937 42.36182117 36.27947172 49.13666109 23.1875 53.0625 C22.00800781 53.43375 20.82851563 53.805 19.61328125 54.1875 C10.87812874 56.71254717 2.39504434 57.4737849 -6.6875 57.5625 C-7.72084473 57.58086914 -8.75418945 57.59923828 -9.81884766 57.61816406 C-17.5036889 57.5566164 -25.8519017 56.56977101 -31.82177734 51.28320312 C-36.82314215 45.74255252 -38.22590911 41.28811575 -38.05859375 33.8671875 C-37.12800482 23.26142795 -30.13057767 14.52467384 -22.25 7.85546875 C-15.41056117 2.82453538 -8.53872692 -0.12744369 0 0 Z " fill="#2C48A9" transform="translate(420.8125,524.9375)"/>
<path d="M0 0 C2.66570809 2.59555787 3.825604 4.476812 5 8 C5.99 8.33 6.98 8.66 8 9 C8.6875 11.0625 8.6875 11.0625 9 13 C7.9790625 12.505 7.9790625 12.505 6.9375 12 C3.23447712 10.73939647 0.88971222 10.38583491 -3 11 C-5.45701302 13.29321215 -7.08634094 15.27738506 -9 18 C-9.7528125 19.05445313 -10.505625 20.10890625 -11.28125 21.1953125 C-12.56236153 22.99273786 -13.84172088 24.79130643 -15.11645508 26.59326172 C-34.07137866 53.29202972 -34.07137866 53.29202972 -46 58 C-49 57.8125 -49 57.8125 -51 57 C-51.94322271 44.03068778 -43.42430009 32.28536425 -35.28515625 22.71484375 C-12.66625078 -2.84344405 -12.66625078 -2.84344405 0 0 Z " fill="#DDE6ED" transform="translate(636,502)"/>
<path d="M0 0 C3.67132431 0.45086439 5.60236458 1.28467424 8.5625 3.4375 C7.14514253 7.28962501 5.32663344 10.62672283 3.1875 14.125 C-2.10396202 23.07638992 -5.61531643 31.25620508 -5.5 41.75 C-5.49097656 42.81863281 -5.48195313 43.88726563 -5.47265625 44.98828125 C-5.46105469 45.79652344 -5.44945312 46.60476563 -5.4375 47.4375 C8.25402451 44.52693731 18.2343835 26.42967476 25.5625 15.4375 C28.18539433 14.22693339 30.82188661 13.3510378 33.5625 12.4375 C31.98113285 17.30324509 29.19433548 20.92590506 26.125 24.9375 C25.59221436 25.6380249 25.05942871 26.3385498 24.51049805 27.06030273 C3.48128955 54.50119657 3.48128955 54.50119657 -6.1796875 55.80859375 C-7.73042969 55.84146484 -7.73042969 55.84146484 -9.3125 55.875 C-10.85550781 55.93494141 -10.85550781 55.93494141 -12.4296875 55.99609375 C-16.56715 55.22770786 -17.96961865 53.80892261 -20.4375 50.4375 C-21.66400401 42.77828268 -20.83982373 34.79461642 -18.4375 27.4375 C-19.0975 28.0975 -19.7575 28.7575 -20.4375 29.4375 C-20.4375 28.7775 -20.4375 28.1175 -20.4375 27.4375 C-22.0875 28.0975 -23.7375 28.7575 -25.4375 29.4375 C-25.07543457 28.96151367 -24.71336914 28.48552734 -24.34033203 27.99511719 C-19.99484231 22.24673085 -15.85553855 16.37074223 -11.76171875 10.44140625 C-4.90564514 0.62435484 -4.90564514 0.62435484 0 0 Z " fill="#278AD1" transform="translate(636.4375,511.5625)"/>
<path d="M0 0 C2.9375 1 2.9375 1 5 2 C3.47009312 6.27568711 1.2654255 9.97882731 -1.125 13.8125 C-5.91098409 21.64755641 -10.08182352 29.70114514 -14 38 C-14.53109375 39.10859375 -15.0621875 40.2171875 -15.609375 41.359375 C-18.41591821 47.5716111 -19.56803397 52.18359233 -19 59 C-14.6822542 58.49202991 -10.96697886 57.80317221 -7 56 C-6.5 58.1875 -6.5 58.1875 -7 61 C-12.682253 65.78156954 -18.30666715 67.35300291 -25.6171875 67.2890625 C-28 67 -28 67 -30.5625 65.1875 C-33.68743859 60.43215866 -33.56308222 55.49787228 -33 50 C-31.00430977 42.98254575 -27.34916142 36.45125355 -24 30 C-24.48210937 30.5775 -24.96421875 31.155 -25.4609375 31.75 C-26.40839844 32.86375 -26.40839844 32.86375 -27.375 34 C-28.31472656 35.11375 -28.31472656 35.11375 -29.2734375 36.25 C-29.84320313 36.8275 -30.41296875 37.405 -31 38 C-31.66 38 -32.32 38 -33 38 C-32.38361994 34.64493661 -31.17418513 32.57960405 -29.12109375 29.875 C-28.53303955 29.09125 -27.94498535 28.3075 -27.33911133 27.5 C-26.71157959 26.675 -26.08404785 25.85 -25.4375 25 C-20.58765781 18.53764838 -15.91034089 12.05516627 -11.55078125 5.25 C-8.06378254 0.1907777 -6.30579349 -0.54360289 0 0 Z " fill="#251E92" transform="translate(314,500)"/>
<path d="M0 0 C0.70125 0.2475 1.4025 0.495 2.125 0.75 C1.78903762 10.15694651 -2.81141212 14.93273584 -9.375 21.3125 C-15.1225373 26.35143681 -24.01743703 32.75 -31.875 32.75 C-28.6328566 23.54164426 -21.47374384 16.08191027 -14.6875 9.25 C-14.20104004 8.75814209 -13.71458008 8.26628418 -13.21337891 7.75952148 C-4.86825665 -0.42332667 -4.86825665 -0.42332667 0 0 Z " fill="#D2DEEA" transform="translate(566.875,503.25)"/>
<path d="M0 0 C0.66 1.32 1.32 2.64 2 4 C1.34 4.66 0.68 5.32 0 6 C2.97 6 5.94 6 9 6 C8.566875 7.10794922 8.566875 7.10794922 8.125 8.23828125 C5.59366756 15.15549872 3.85912882 21.59760328 5 29 C7.1385485 31.1385485 8.13275314 31.42655063 11 32 C10.67 32.99 10.34 33.98 10 35 C2.0470297 35.62376238 2.0470297 35.62376238 -1.9375 33.25 C-5.41515763 29.45619168 -6.44713194 26.81683815 -6.328125 21.55078125 C-5.37854015 14.16888952 -2.8630592 6.84812808 0 0 Z " fill="#26178A" transform="translate(184,546)"/>
<path d="M0 0 C-3.98233996 17.32155997 -3.98233996 17.32155997 -11 22 C-14.59986622 22.45955739 -16.35662639 22.41241898 -19.4375 20.4375 C-21 18 -21 18 -21.3125 14.75 C-19.01027889 8.17222539 -13.53970126 4.56289309 -7.75 1 C-4.92664927 -0.02667299 -2.96739788 -0.07966169 0 0 Z " fill="#2F329D" transform="translate(335,470)"/>
<path d="M0 0 C0.99 0.33 1.98 0.66 3 1 C2.67 1.66 2.34 2.32 2 3 C2.66 3.33 3.32 3.66 4 4 C4 4.66 4 5.32 4 6 C5.32 6.33 6.64 6.66 8 7 C7.01 7.495 7.01 7.495 6 8 C6 8.99 6 9.98 6 11 C5.01 11.66 4.02 12.32 3 13 C2.47270562 14.64779493 1.95617921 16.30139724 1.5390625 17.98046875 C0.62170901 21.41722058 -0.72007652 24.68383462 -2 28 C-5.16457436 27.41687967 -5.79392207 27.27713928 -7.8125 24.5625 C-9.65143947 19.04568158 -9.40242939 13.99151304 -6.9140625 8.68359375 C-4.91818275 5.39946435 -2.77948575 2.65757848 0 0 Z " fill="#220E82" transform="translate(184,458)"/>
<path d="M0 0 C0.99 0.33 1.98 0.66 3 1 C0.39209551 15.69589422 -15.74939836 30.20498066 -26 40 C-26.99 39.67 -27.98 39.34 -29 39 C-29.6875 36.9375 -29.6875 36.9375 -30 35 C-29.38253906 34.46632813 -28.76507812 33.93265625 -28.12890625 33.3828125 C-16.80049512 23.41656953 -8.2990219 12.50282551 0 0 Z " fill="#22D8F6" transform="translate(863,523)"/>
<path d="M0 0 C0.66 0 1.32 0 2 0 C2.80078125 1.6640625 2.80078125 1.6640625 3 4 C-0.14910764 8.16109633 -4.078164 11.57765517 -8 15 C-8.79148437 15.69996094 -9.58296875 16.39992188 -10.3984375 17.12109375 C-15.88186538 21.17284165 -20.10847194 21.27587941 -26.625 20.375 C-29.10068981 19.97308263 -31.54239559 19.50615674 -34 19 C-34 18.67 -34 18.34 -34 18 C-33.17757812 17.92523437 -32.35515625 17.85046875 -31.5078125 17.7734375 C-17.79315747 16.15808552 -9.59295671 9.59295671 0 0 Z " fill="#1DC4ED" transform="translate(773,544)"/>
<path d="M0 0 C0.99 0 1.98 0 3 0 C3.54204243 4.8161803 1.89985677 7.2250708 -0.8125 11.125 C-1.52019531 12.15882813 -2.22789062 13.19265625 -2.95703125 14.2578125 C-4.54347114 16.3872213 -6.05005387 18.21613761 -8 20 C-9.32 19.34 -10.64 18.68 -12 18 C-11.55269531 17.3709375 -11.10539062 16.741875 -10.64453125 16.09375 C-7.25764807 11.29867445 -4.01530563 6.52022764 -1.140625 1.3984375 C-0.57601563 0.70621094 -0.57601563 0.70621094 0 0 Z " fill="#35309E" transform="translate(390,522)"/>
<path d="M0 0 C0.33 0.66 0.66 1.32 1 2 C4.3 2 7.6 2 11 2 C10.34 3.98 9.68 5.96 9 8 C6.03 7.505 6.03 7.505 3 7 C2.01 8.485 2.01 8.485 1 10 C0.01 10.33 -0.98 10.66 -2 11 C-3.20882096 13.00016466 -3.20882096 13.00016466 -4 15 C-4.66 15 -5.32 15 -6 15 C-4.40109514 9.80355921 -2.25861997 4.93387858 0 0 Z " fill="#2B178D" transform="translate(193,526)"/>
<path d="M0 0 C0.99 1.32 1.98 2.64 3 4 C-0.67832017 8.52615993 -4.41086363 12.39424999 -9 16 C-9.75 13.25 -9.75 13.25 -10 10 C-8.1875 7.625 -8.1875 7.625 -6 6 C-5.34 6 -4.68 6 -4 6 C-3.71125 5.38125 -3.4225 4.7625 -3.125 4.125 C-2 2 -2 2 0 0 Z " fill="#3C339D" transform="translate(316,545)"/>
<path d="M0 0 C0 2.71012238 -0.02990926 4.49976612 -1 7 C-5.95165884 10.44278426 -11.09315256 11.50271042 -17 11 C-12.43913169 5.46180277 -6.41488823 2.97724478 0 0 Z " fill="#397AC7" transform="translate(550,529)"/>
<path d="M0 0 C0.70125 0.144375 1.4025 0.28875 2.125 0.4375 C0.78015286 4.47911955 -0.9255162 6.82428154 -4 9.75 C-4.72445313 10.44738281 -5.44890625 11.14476562 -6.1953125 11.86328125 C-6.74960937 12.38277344 -7.30390625 12.90226563 -7.875 13.4375 C-8.865 12.7775 -9.855 12.1175 -10.875 11.4375 C-8.60639174 6.57773254 -5.62562069 0.85607271 0 0 Z " fill="#2B2A93" transform="translate(379.875,540.5625)"/>
<path d="M0 0 C0.99 0.33 1.98 0.66 3 1 C3.33 1.99 3.66 2.98 4 4 C-2.78600068 8.70865353 -8.23709988 7.9316966 -16 6.578125 C-16.99 6.38734375 -17.98 6.1965625 -19 6 C-19 5.67 -19 5.34 -19 5 C-18.13117187 4.89042969 -17.26234375 4.78085937 -16.3671875 4.66796875 C-10.30065608 3.83331174 -5.41397141 2.99193157 0 0 Z " fill="#40C8EF" transform="translate(758,557)"/>
<path d="M0 0 C1.23556641 0.01740234 1.23556641 0.01740234 2.49609375 0.03515625 C3.32238281 0.04417969 4.14867187 0.05320312 5 0.0625 C5.63808594 0.07410156 6.27617187 0.08570313 6.93359375 0.09765625 C6.60359375 1.41765625 6.27359375 2.73765625 5.93359375 4.09765625 C2.66445751 5.12880904 0.07318027 5.06155465 -3.31640625 4.66015625 C-4.2084375 4.55832031 -5.10046875 4.45648438 -6.01953125 4.3515625 C-6.695 4.26777344 -7.37046875 4.18398438 -8.06640625 4.09765625 C-8.06640625 3.10765625 -8.06640625 2.11765625 -8.06640625 1.09765625 C-6.85984375 1.12859375 -6.85984375 1.12859375 -5.62890625 1.16015625 C-2.75043439 1.08994962 -2.70010568 0.12760424 0 0 Z " fill="#1D0F77" transform="translate(222.06640625,483.90234375)"/>
<path d="M0 0 C1.18851563 0.10183594 2.37703125 0.20367187 3.6015625 0.30859375 C4.51679688 0.39238281 5.43203125 0.47617187 6.375 0.5625 C5.715 1.8825 5.055 3.2025 4.375 4.5625 C2.95844207 4.5897415 1.54172955 4.60900467 0.125 4.625 C-1.05835938 4.64240234 -1.05835938 4.64240234 -2.265625 4.66015625 C-4.53191002 4.56635306 -6.4538895 4.19491063 -8.625 3.5625 C-8.625 2.5725 -8.625 1.5825 -8.625 0.5625 C-5.68113377 -0.90943312 -3.25109964 -0.28686173 0 0 Z " fill="#1A0F72" transform="translate(227.625,476.4375)"/>
<path d="M0 0 C0.66 1.32 1.32 2.64 2 4 C1.01 4.99 0.02 5.98 -1 7 C-0.34 7.33 0.32 7.66 1 8 C-0.66666667 9.66666667 -2.33333333 11.33333333 -4 13 C-4.886875 13.9075 -5.77375 14.815 -6.6875 15.75 C-9 18 -9 18 -11 19 C-9.41467191 14.44435939 -7.00996919 10.68524231 -4.375 6.6875 C-3.95476562 6.04232422 -3.53453125 5.39714844 -3.1015625 4.73242188 C-2.07161759 3.15239276 -1.03634372 1.57583953 0 0 Z " fill="#BDC6E0" transform="translate(238,471)"/>
<path d="M0 0 C-3.3 3.63 -6.6 7.26 -10 11 C-10.99 10.67 -11.98 10.34 -13 10 C-12.4204182 6.78087698 -11.51238945 5.10207467 -9.1875 2.8125 C-8.68605469 2.30332031 -8.18460938 1.79414062 -7.66796875 1.26953125 C-5.02899367 -0.73905634 -3.02844202 -1.51422101 0 0 Z " fill="#13C7F0" transform="translate(813,524)"/>
<path d="M0 0 C0.33 0.66 0.66 1.32 1 2 C0.22265625 3.9453125 0.22265625 3.9453125 -0.9375 6.125 C-1.31777344 6.84945312 -1.69804688 7.57390625 -2.08984375 8.3203125 C-2.39019531 8.87460937 -2.69054687 9.42890625 -3 10 C-2.01 10.33 -1.02 10.66 0 11 C-3.66666667 14.66666667 -7.33333333 18.33333333 -11 22 C-9.48968084 16.73877829 -7.09625809 12.32767414 -4.375 7.625 C-3.95476563 6.88894531 -3.53453125 6.15289063 -3.1015625 5.39453125 C-2.07247236 3.5936235 -1.03689244 1.79642682 0 0 Z " fill="#BDE4EC" transform="translate(807,514)"/>
<path d="M0 0 C0.66 0.33 1.32 0.66 2 1 C1.01 2.485 1.01 2.485 0 4 C0 4.99 0 5.98 0 7 C-2.72113384 9.56995974 -5.16028468 11.73519205 -9 12 C-9.66 11.34 -10.32 10.68 -11 10 C-10.45730469 9.52949219 -9.91460938 9.05898438 -9.35546875 8.57421875 C-8.64003906 7.95160156 -7.92460938 7.32898438 -7.1875 6.6875 C-6.47980469 6.07261719 -5.77210938 5.45773437 -5.04296875 4.82421875 C-3.29863261 3.26665665 -1.63221959 1.67341125 0 0 Z " fill="#31CEF0" transform="translate(818,513)"/>
<path d="M0 0 C0.66 1.32 1.32 2.64 2 4 C1.34 4.66 0.68 5.32 0 6 C2.97 6 5.94 6 9 6 C8.34 7.32 7.68 8.64 7 10 C3.7 10 0.4 10 -3 10 C-2.01 6.7 -1.02 3.4 0 0 Z " fill="#220C8C" transform="translate(184,546)"/>
<path d="M0 0 C0.33 0.66 0.66 1.32 1 2 C-0.07421875 4.56640625 -0.07421875 4.56640625 -1.6875 7.5625 C-2.20699219 8.55378906 -2.72648438 9.54507813 -3.26171875 10.56640625 C-5 13 -5 13 -7.00390625 13.7734375 C-7.66261719 13.84820313 -8.32132813 13.92296875 -9 14 C-11.00382009 14.65509503 -13.00458132 15.31974363 -15 16 C-14.34 15.34 -13.68 14.68 -13 14 C-12.55011719 13.54882812 -12.10023438 13.09765625 -11.63671875 12.6328125 C-10.4151925 11.41420159 -9.1876432 10.20162257 -7.95703125 8.9921875 C-7.24933594 8.29351563 -6.54164063 7.59484375 -5.8125 6.875 C-5.13832031 6.21242188 -4.46414063 5.54984375 -3.76953125 4.8671875 C-1.82446642 2.92056683 -1.82446642 2.92056683 0 0 Z " fill="#C7E8F2" transform="translate(777,545)"/>
<path d="M0 0 C3.3 0 6.6 0 10 0 C9.67 1.65 9.34 3.3 9 5 C7.88625 4.979375 6.7725 4.95875 5.625 4.9375 C2.16784079 4.73619282 2.16784079 4.73619282 0 6 C0 4.02 0 2.04 0 0 Z " fill="#21127F" transform="translate(181,556)"/>
<path d="M0 0 C0.99 0 1.98 0 3 0 C3.42820102 3.63970867 2.97413512 5.04569463 1.125 8.3125 C0.073125 9.6428125 0.073125 9.6428125 -1 11 C-1.66 11 -2.32 11 -3 11 C-3.75 8.875 -3.75 8.875 -4 6 C-2.25 2.6875 -2.25 2.6875 0 0 Z " fill="#30309C" transform="translate(390,522)"/>
<path d="M0 0 C-0.33 1.32 -0.66 2.64 -1 4 C-4.63 3.67 -8.26 3.34 -12 3 C-11.67 2.01 -11.34 1.02 -11 0 C-7.38357376 -1.6691198 -3.79425988 -0.65669883 0 0 Z " fill="#1C0F71" transform="translate(214,509)"/>
<path d="M0 0 C-0.66 1.32 -1.32 2.64 -2 4 C-5.63 3.67 -9.26 3.34 -13 3 C-12.67 2.01 -12.34 1.02 -12 0 C-8.23620313 -1.8066225 -3.95861815 -0.59379272 0 0 Z " fill="#1E1077" transform="translate(219,501)"/>
<path d="M0 0 C0.33 0.66 0.66 1.32 1 2 C2.65 1.67 4.3 1.34 6 1 C5.67 2.32 5.34 3.64 5 5 C1.37 5 -2.26 5 -6 5 C-6 4.34 -6 3.68 -6 3 C-4.02 2.01 -2.04 1.02 0 0 Z " fill="#1E1076" transform="translate(200,523)"/>
<path d="M0 0 C1.52519276 0.08937803 3.04681929 0.24537146 4.5625 0.4375 C5.80193359 0.59025391 5.80193359 0.59025391 7.06640625 0.74609375 C7.70449219 0.82988281 8.34257812 0.91367187 9 1 C8.67 2.32 8.34 3.64 8 5 C5.36 5 2.72 5 0 5 C-0.5625 3.0625 -0.5625 3.0625 -1 1 C-0.67 0.67 -0.34 0.34 0 0 Z " fill="#1F127A" transform="translate(215,492)"/>
<path d="M0 0 C0.5534764 2.07553648 1 3.84365964 1 6 C0.443125 6.515625 -0.11375 7.03125 -0.6875 7.5625 C-3.4425603 10.46648248 -5.03141592 13.53246856 -6.8515625 17.07421875 C-8 19 -8 19 -10 20 C-8.34229667 15.50675151 -6.15017838 11.38813854 -3.875 7.1875 C-3.50246094 6.49462891 -3.12992188 5.80175781 -2.74609375 5.08789062 C-1.83309623 3.39065164 -0.91687284 1.69514862 0 0 Z " fill="#B7BDD8" transform="translate(210,517)"/>
<path d="M0 0 C1.1446875 0.12375 1.1446875 0.12375 2.3125 0.25 C0.75749019 4.06684226 -1.72345495 6.44195732 -4.6875 9.25 C-5.3475 8.92 -6.0075 8.59 -6.6875 8.25 C-5.9168107 3.93413993 -4.72992724 0.43999323 0 0 Z " fill="#16D4F5" transform="translate(845.6875,549.75)"/>
<path d="M0 0 C1.5 1.125 1.5 1.125 3 3 C3.1875 6.1875 3.1875 6.1875 3 9 C1.68 9 0.36 9 -1 9 C-1.80967438 6.08517222 -2.21845993 4.53886783 -1.0625 1.6875 C-0.711875 1.130625 -0.36125 0.57375 0 0 Z " fill="#358FD3" transform="translate(641,501)"/>
<path d="M0 0 C2.625 0.375 2.625 0.375 5 1 C3.60667426 4.36720387 2.0210714 5.9859524 -1 8 C-1.625 5.125 -1.625 5.125 -2 2 C-1.34 1.34 -0.68 0.68 0 0 Z " fill="#332996" transform="translate(308,553)"/>
<path d="M0 0 C0.99 0.66 1.98 1.32 3 2 C1.25 6.875 1.25 6.875 -1 8 C-1.66 7.34 -2.32 6.68 -3 6 C-3.99 6 -4.98 6 -6 6 C-4.02 4.02 -2.04 2.04 0 0 Z " fill="#3583C7" transform="translate(607,545)"/>
<path d="M0 0 C1.27162597 3.8148779 0.64661571 5.3931275 -1 9 C-2.875 9.75 -2.875 9.75 -5 10 C-6.345905 10.64090714 -7.68132085 11.30479677 -9 12 C-6 8 -3 4 0 0 Z " fill="#B9D3EA" transform="translate(618,538)"/>
<path d="M0 0 C0.33 0.99 0.66 1.98 1 3 C0.01 4.485 0.01 4.485 -1 6 C-0.67 6.99 -0.34 7.98 0 9 C-2.375 9.625 -2.375 9.625 -5 10 C-5.66 9.34 -6.32 8.68 -7 8 C-4.69 5.36 -2.38 2.72 0 0 Z " fill="#2DDAF2" transform="translate(850,541)"/>
<path d="M0 0 C0.33 0.66 0.66 1.32 1 2 C1.99 2 2.98 2 4 2 C3.875 3.875 3.875 3.875 3 6 C-0.0625 7.25 -0.0625 7.25 -3 8 C-1.125 2.25 -1.125 2.25 0 0 Z " fill="#2E1A92" transform="translate(213,486)"/>
<path d="M0 0 C0.66 0 1.32 0 2 0 C2 0.99 2 1.98 2 3 C-4.625 7 -4.625 7 -8 7 C-7.3125 5.125 -7.3125 5.125 -6 3 C-3.4375 1.8125 -3.4375 1.8125 -1 1 C-0.67 0.67 -0.34 0.34 0 0 Z " fill="#1F137C" transform="translate(213,450)"/>
<path d="M0 0 C0.33 0.99 0.66 1.98 1 3 C-0.98 3.99 -2.96 4.98 -5 6 C-5 5.01 -5 4.02 -5 3 C-5.66 2.34 -6.32 1.68 -7 1 C-3.375 -1.125 -3.375 -1.125 0 0 Z " fill="#2FC6EF" transform="translate(761,558)"/>
<path d="M0 0 C0.33 0.66 0.66 1.32 1 2 C-0.3125 4.625 -0.3125 4.625 -2 7 C-2.66 7 -3.32 7 -4 7 C-4 7.99 -4 8.98 -4 10 C-4.99 10.33 -5.98 10.66 -7 11 C-5.72278474 6.00724943 -3.82669043 3.42388092 0 0 Z " fill="#2C1B8C" transform="translate(184,458)"/>
<path d="M0 0 C2.31 0 4.62 0 7 0 C4.38485683 2.12038635 1.80362384 4.13091744 -1 6 C-1.33 5.34 -1.66 4.68 -2 4 C-1.0625 1.875 -1.0625 1.875 0 0 Z " fill="#2C1592" transform="translate(200,457)"/>
<path d="M0 0 C0 0.99 0 1.98 0 3 C-2.97 3 -5.94 3 -9 3 C-9 2.34 -9 1.68 -9 1 C-5.92677456 0.08941469 -3.19902639 -0.08886184 0 0 Z " fill="#1E1574" transform="translate(197,541)"/>
<path d="M0 0 C0.33 0.66 0.66 1.32 1 2 C0.00390625 4.1640625 0.00390625 4.1640625 -1.4375 6.625 C-1.91058594 7.44226563 -2.38367188 8.25953125 -2.87109375 9.1015625 C-3.24363281 9.72804688 -3.61617188 10.35453125 -4 11 C-4.33 10.34 -4.66 9.68 -5 9 C-5.66 8.67 -6.32 8.34 -7 8 C-4.69 5.36 -2.38 2.72 0 0 Z " fill="#C8CDE3" transform="translate(290,529)"/>
<path d="M0 0 C1.98 0 3.96 0 6 0 C5.01 0.33 4.02 0.66 3 1 C1.77030122 4.51190809 1.77030122 4.51190809 1 8 C0.01 7.01 -0.98 6.02 -2 5 C-1.34 3.35 -0.68 1.7 0 0 Z " fill="#200B84" transform="translate(197,456)"/>
<path d="M0 0 C0.33 0.66 0.66 1.32 1 2 C-0.21958756 4.67371119 -1.18298261 6.75412136 -3 9 C-5.75 9.9375 -5.75 9.9375 -8 10 C-7.59007812 9.52949219 -7.18015625 9.05898438 -6.7578125 8.57421875 C-6.21898437 7.95160156 -5.68015625 7.32898438 -5.125 6.6875 C-4.59132813 6.07261719 -4.05765625 5.45773437 -3.5078125 4.82421875 C-1.8359553 2.86501788 -1.8359553 2.86501788 0 0 Z " fill="#B2E3F2" transform="translate(777,545)"/>
<path d="M0 0 C0.99 0.33 1.98 0.66 3 1 C1.95125002 3.62187494 1.35068687 4.79371361 -1.125 6.25 C-1.74375 6.4975 -2.3625 6.745 -3 7 C-2.38722388 4.03824877 -1.74627478 2.61941217 0 0 Z " fill="#231A81" transform="translate(284,531)"/>
<path d="M0 0 C0.99 0.99 1.98 1.98 3 3 C2.67 3.99 2.34 4.98 2 6 C0.02 6.33 -1.96 6.66 -4 7 C-2.68 4.69 -1.36 2.38 0 0 Z " fill="#3D3C9F" transform="translate(385,530)"/>
<path d="M0 0 C0.33 0 0.66 0 1 0 C1.39169887 2.66355234 1.40564529 4.39224373 -0.11328125 6.66796875 C-1.36389317 8.1510888 -2.67864514 9.57954352 -4 11 C-4.33 10.34 -4.66 9.68 -5 9 C-4.00390625 6.8359375 -4.00390625 6.8359375 -2.5625 4.375 C-2.08941406 3.55773437 -1.61632812 2.74046875 -1.12890625 1.8984375 C-0.75636719 1.27195312 -0.38382813 0.64546875 0 0 Z " fill="#A9DFEC" transform="translate(801,525)"/>
<path d="M0 0 C2.31 0 4.62 0 7 0 C6.34 1.32 5.68 2.64 5 4 C2.03 3.505 2.03 3.505 -1 3 C-0.67 2.01 -0.34 1.02 0 0 Z " fill="#220C8F" transform="translate(230,473)"/>
<path d="M0 0 C0.33 0.99 0.66 1.98 1 3 C1.99 3 2.98 3 4 3 C3.67 3.99 3.34 4.98 3 6 C1.02 6.33 -0.96 6.66 -3 7 C-2.01 4.69 -1.02 2.38 0 0 Z " fill="#200D86" transform="translate(222,470)"/>
<path d="M0 0 C0.66 0.33 1.32 0.66 2 1 C-1.32307692 6.78461538 -1.32307692 6.78461538 -4.75 7.875 C-5.4925 7.91625 -6.235 7.9575 -7 8 C-6.02133662 6.85373678 -5.04205413 5.70800212 -4.0625 4.5625 C-3.51722656 3.92441406 -2.97195313 3.28632812 -2.41015625 2.62890625 C-1.63204305 1.73008851 -0.84063472 0.84063472 0 0 Z " fill="#3177BD" transform="translate(569,544)"/>
<path d="M0 0 C-0.66 1.65 -1.32 3.3 -2 5 C-3.65 4.67 -5.3 4.34 -7 4 C-3.375 0 -3.375 0 0 0 Z " fill="#B2E7F2" transform="translate(828,514)"/>
<path d="M0 0 C1.42944945 2.35438733 2.08661261 3.48032433 1.625 6.25 C1.41875 6.8275 1.2125 7.405 1 8 C-0.32 8 -1.64 8 -3 8 C-1.125 2.25 -1.125 2.25 0 0 Z " fill="#261587" transform="translate(201,510)"/>
<path d="M0 0 C0.93045933 2.55144824 1.08564091 3.74006478 0.22265625 6.359375 C-0.16019531 7.14828125 -0.54304687 7.9371875 -0.9375 8.75 C-1.50791016 9.94882812 -1.50791016 9.94882812 -2.08984375 11.171875 C-2.39019531 11.77515625 -2.69054687 12.3784375 -3 13 C-3.93045933 10.44855176 -4.08564091 9.25993522 -3.22265625 6.640625 C-2.83980469 5.85171875 -2.45695313 5.0628125 -2.0625 4.25 C-1.68222656 3.45078125 -1.30195312 2.6515625 -0.91015625 1.828125 C-0.60980469 1.22484375 -0.30945313 0.6215625 0 0 Z " fill="#5DD9EE" transform="translate(816,536)"/>
<path d="M0 0 C1.65 0.33 3.3 0.66 5 1 C4.67 1.99 4.34 2.98 4 4 C2.02 4 0.04 4 -2 4 C-1.34 2.68 -0.68 1.36 0 0 Z " fill="#1E1577" transform="translate(196,532)"/>
<path d="M0 0 C1.32 0 2.64 0 4 0 C3.67 1.32 3.34 2.64 3 4 C1.68 4.33 0.36 4.66 -1 5 C-1 1 -1 1 0 0 Z " fill="#27229A" transform="translate(305,473)"/>
<path d="M0 0 C1.125 3.75 1.125 3.75 0 6 C1.65 6 3.3 6 5 6 C5 6.33 5 6.66 5 7 C2.36 7 -0.28 7 -3 7 C-2.67 5.68 -2.34 4.36 -2 3 C-1.34 3 -0.68 3 0 3 C0 2.01 0 1.02 0 0 Z " fill="#B8B7D9" transform="translate(266,424)"/>
<path d="M0 0 C0.66 1.32 1.32 2.64 2 4 C0.02 6.97 0.02 6.97 -2 10 C-3 8 -3 8 -2.44140625 6.0546875 C-2.15136719 5.33539062 -1.86132812 4.61609375 -1.5625 3.875 C-1.27503906 3.15054688 -0.98757812 2.42609375 -0.69140625 1.6796875 C-0.46324219 1.12539063 -0.23507813 0.57109375 0 0 Z " fill="#4C3D9B" transform="translate(184,546)"/>
<path d="M0 0 C1.32 0 2.64 0 4 0 C3.67 1.65 3.34 3.3 3 5 C1.68 4.34 0.36 3.68 -1 3 C-0.67 2.01 -0.34 1.02 0 0 Z " fill="#260F8F" transform="translate(195,537)"/>
<path d="M0 0 C2.625 -0.1875 2.625 -0.1875 5 0 C4.34 1.32 3.68 2.64 3 4 C1.35 3.67 -0.3 3.34 -2 3 C-1.34 2.01 -0.68 1.02 0 0 Z " fill="#250D94" transform="translate(222,489)"/>
<path d="M0 0 C1.65 0.33 3.3 0.66 5 1 C4.67 1.99 4.34 2.98 4 4 C2.35 4 0.7 4 -1 4 C-0.67 2.68 -0.34 1.36 0 0 Z " fill="#241F9D" transform="translate(300,480)"/>
<path d="M0 0 C0.99 0 1.98 0 3 0 C1.63016497 3.16115776 1.0109362 3.9927092 -2 6 C-1.125 1.125 -1.125 1.125 0 0 Z " fill="#2F2489" transform="translate(188,469)"/>
<path d="M0 0 C1.67542976 0.28604898 3.34385343 0.61781233 5 1 C3.68 2.32 2.36 3.64 1 5 C0.34 3.68 -0.32 2.36 -1 1 C-0.67 0.67 -0.34 0.34 0 0 Z " fill="#2F1795" transform="translate(190,465)"/>
<path d="M0 0 C1.98 0.495 1.98 0.495 4 1 C4 1.99 4 2.98 4 4 C2.35 4 0.7 4 -1 4 C-0.67 2.68 -0.34 1.36 0 0 Z " fill="#240F97" transform="translate(254,440)"/>
</svg>
